<svg xmlns="http://www.w3.org/2000/svg" width="119.664" height="37.215" viewBox="0 0 119.664 37.215"><defs><style>.a{fill:#a6a6a6;}.b{fill:#fff;}</style></defs><g transform="translate(6.299 0)"><g transform="translate(-6.299 0)"><path class="a" d="M110.135,0H9.535C9.168,0,8.806,0,8.44,0c-.306,0-.61.007-.919.012a14.179,14.179,0,0,0-2,.164,7.018,7.018,0,0,0-1.9.583A6.44,6.44,0,0,0,2,1.858a5.879,5.879,0,0,0-1.8,3.279A11.27,11.27,0,0,0,.015,7C.006,7.285,0,7.571,0,7.856v21.5c0,.289.006.569.015.858a11.269,11.269,0,0,0,.179,1.863A5.834,5.834,0,0,0,2,35.355a6.276,6.276,0,0,0,1.619,1.1,7.054,7.054,0,0,0,1.9.587,14.437,14.437,0,0,0,2,.164c.309.006.613.01.919.01.366,0,.728,0,1.095,0h100.6c.359,0,.725,0,1.084,0,.3,0,.617,0,.922-.01a14.248,14.248,0,0,0,2-.164,7.164,7.164,0,0,0,1.908-.587,6.279,6.279,0,0,0,1.617-1.1,5.993,5.993,0,0,0,1.182-1.5,5.848,5.848,0,0,0,.619-1.772,11.715,11.715,0,0,0,.186-1.863c0-.289,0-.569,0-.858.008-.338.008-.674.008-1.018V8.872c0-.341,0-.679-.008-1.016,0-.285,0-.571,0-.857a11.717,11.717,0,0,0-.186-1.863,5.86,5.86,0,0,0-.619-1.771,6.259,6.259,0,0,0-2.8-2.6,7.127,7.127,0,0,0-1.908-.583,14,14,0,0,0-2-.164c-.3,0-.617-.01-.922-.012-.359,0-.725,0-1.084,0Z" transform="translate(0 0)"/><path d="M8.453,36.462c-.3,0-.6,0-.905-.01A13.642,13.642,0,0,1,5.676,36.3a6.206,6.206,0,0,1-1.658-.51,5.414,5.414,0,0,1-1.4-.946,4.986,4.986,0,0,1-1.022-1.3A5.065,5.065,0,0,1,1.054,32a10.756,10.756,0,0,1-.167-1.744c-.006-.2-.015-.85-.015-.85V7.917s.009-.643.015-.832a10.719,10.719,0,0,1,.166-1.742A5.094,5.094,0,0,1,1.6,3.8,5.032,5.032,0,0,1,2.614,2.5a5.573,5.573,0,0,1,1.4-.951,6.143,6.143,0,0,1,1.655-.506A13.532,13.532,0,0,1,7.55.886l.9-.011H111.328l.914.012a13.316,13.316,0,0,1,1.86.151,6.265,6.265,0,0,1,1.673.51A5.417,5.417,0,0,1,118.192,3.8a5.1,5.1,0,0,1,.536,1.534,11.26,11.26,0,0,1,.174,1.756c0,.263,0,.547,0,.828.008.349.008.681.008,1.016V28.4c0,.338,0,.668-.008,1,0,.3,0,.58,0,.865a11.038,11.038,0,0,1-.171,1.724,5.078,5.078,0,0,1-.541,1.554,5.137,5.137,0,0,1-1.017,1.289,5.419,5.419,0,0,1-1.4.951,6.183,6.183,0,0,1-1.67.512,13.486,13.486,0,0,1-1.871.152c-.293.006-.6.01-.9.01l-1.085,0Z" transform="translate(-0.061 -0.061)"/><g transform="translate(9.277 8.113)"><path class="b" d="M23.739,19.86A4.6,4.6,0,0,1,25.931,16a4.713,4.713,0,0,0-3.713-2.007c-1.562-.164-3.077.935-3.873.935-.812,0-2.037-.919-3.357-.891a4.945,4.945,0,0,0-4.161,2.538c-1.8,3.115-.457,7.694,1.266,10.212.862,1.233,1.87,2.61,3.189,2.562,1.29-.054,1.772-.823,3.33-.823s2,.823,3.341.792c1.385-.022,2.257-1.239,3.089-2.483a10.2,10.2,0,0,0,1.413-2.877A4.449,4.449,0,0,1,23.739,19.86Z" transform="translate(-9.972 -9.086)"/><path class="b" d="M21.811,11.968A4.533,4.533,0,0,0,22.848,8.72a4.612,4.612,0,0,0-2.984,1.544A4.314,4.314,0,0,0,18.8,13.392a3.814,3.814,0,0,0,3.011-1.424Z" transform="translate(-10.586 -8.72)"/><g transform="translate(31.085 8.514)"><path class="b" d="M41.754,26.509h-4.4l-1.058,3.123H34.427L38.6,18.078h1.938l4.171,11.553h-1.9Zm-3.948-1.441H41.3L39.576,20h-.048Z" transform="translate(-34.427 -17.885)"/><path class="b" d="M54.566,25.648c0,2.618-1.4,4.3-3.515,4.3a2.856,2.856,0,0,1-2.65-1.474h-.04v4.172H46.631V21.436H48.3v1.4h.032a2.988,2.988,0,0,1,2.682-1.489C53.157,21.348,54.566,23.038,54.566,25.648Zm-1.777,0c0-1.705-.881-2.827-2.226-2.827-1.321,0-2.21,1.145-2.21,2.827,0,1.7.889,2.834,2.21,2.834,1.345,0,2.226-1.113,2.226-2.834Z" transform="translate(-35.277 -18.113)"/><path class="b" d="M64.531,25.648c0,2.618-1.4,4.3-3.515,4.3a2.856,2.856,0,0,1-2.65-1.474h-.04v4.172H56.6V21.436H58.27v1.4H58.3a2.988,2.988,0,0,1,2.682-1.489C63.122,21.348,64.531,23.038,64.531,25.648Zm-1.777,0c0-1.705-.881-2.827-2.226-2.827-1.321,0-2.21,1.145-2.21,2.827,0,1.7.889,2.834,2.21,2.834,1.345,0,2.226-1.113,2.226-2.834Z" transform="translate(-35.971 -18.113)"/><path class="b" d="M71.578,26.4c.128,1.146,1.241,1.9,2.762,1.9,1.457,0,2.506-.752,2.506-1.785,0-.9-.632-1.434-2.13-1.8l-1.5-.361c-2.122-.512-3.106-1.5-3.106-3.115,0-1.993,1.737-3.363,4.2-3.363,2.441,0,4.115,1.369,4.171,3.363H76.742c-.1-1.153-1.058-1.849-2.45-1.849s-2.346.7-2.346,1.729c0,.817.609,1.3,2.1,1.665l1.273.313c2.37.561,3.355,1.513,3.355,3.2,0,2.161-1.722,3.515-4.46,3.515-2.562,0-4.292-1.322-4.4-3.412Z" transform="translate(-36.891 -17.871)"/><path class="b" d="M83.125,19.3v1.993h1.6v1.369h-1.6v4.644c0,.721.321,1.058,1.025,1.058a5.4,5.4,0,0,0,.569-.04v1.361a4.748,4.748,0,0,1-.96.08c-1.705,0-2.37-.641-2.37-2.274V22.662H80.163V21.293h1.225V19.3Z" transform="translate(-37.612 -17.97)"/><path class="b" d="M86.065,25.647c0-2.65,1.561-4.316,3.995-4.316s4,1.665,4,4.316-1.545,4.316-4,4.316S86.065,28.3,86.065,25.647Zm6.229,0c0-1.818-.833-2.891-2.234-2.891s-2.233,1.081-2.233,2.891c0,1.825.832,2.89,2.233,2.89s2.234-1.065,2.234-2.89Z" transform="translate(-38.023 -18.112)"/><path class="b" d="M96.186,21.436h1.649v1.434h.04A2.009,2.009,0,0,1,99.9,21.348a2.667,2.667,0,0,1,.592.065v1.617a2.417,2.417,0,0,0-.777-.1,1.742,1.742,0,0,0-1.8,1.938v5H96.186Z" transform="translate(-38.727 -18.113)"/><path class="b" d="M108.815,27.384c-.233,1.529-1.722,2.579-3.627,2.579-2.45,0-3.971-1.642-3.971-4.276s1.529-4.356,3.9-4.356c2.33,0,3.8,1.6,3.8,4.155v.592h-5.949v.1a2.194,2.194,0,0,0,2.266,2.386,1.906,1.906,0,0,0,1.945-1.185Zm-5.845-2.514h4.211a2.026,2.026,0,0,0-2.066-2.138,2.132,2.132,0,0,0-2.145,2.138Z" transform="translate(-39.078 -18.112)"/></g></g></g><g transform="translate(31.054 7.679)"><path class="b" d="M35.671,14.282V8.731H37.9c1.043,0,1.67.531,1.67,1.385a1.217,1.217,0,0,1-.973,1.193v.065a1.312,1.312,0,0,1,1.25,1.335c0,.977-.711,1.574-1.9,1.574Zm.862-3.2h1.023c.762,0,1.158-.281,1.158-.808s-.373-.812-1.012-.812H36.533Zm1.247,2.47c.777,0,1.188-.316,1.188-.9s-.427-.885-1.238-.885h-1.2v1.789Z" transform="translate(-35.671 -8.287)"/><path class="b" d="M41.114,13.193c0-.754.561-1.189,1.558-1.251l1.135-.065v-.362c0-.442-.293-.692-.858-.692-.462,0-.781.169-.873.466h-.8c.084-.72.761-1.181,1.712-1.181,1.05,0,1.643.523,1.643,1.408v2.862h-.8v-.589h-.065a1.41,1.41,0,0,1-1.258.658,1.266,1.266,0,0,1-1.4-1.254Zm2.693-.358v-.35l-1.023.065c-.577.039-.839.235-.839.6s.327.6.777.6a.988.988,0,0,0,1.085-.916Z" transform="translate(-36.05 -8.382)"/><path class="b" d="M46.169,8.821a.536.536,0,1,1,.535.5.509.509,0,0,1-.535-.5Zm.123,1.239h.824v4.189h-.824Z" transform="translate(-36.402 -8.253)"/><path class="b" d="M50.1,12.9l-.916,1.485h-.908L49.665,12.3l-1.4-2.1h.966l.9,1.477H50.2l.892-1.477h.919l-1.381,2.07,1.4,2.12h-.95L50.161,12.9Z" transform="translate(-36.548 -8.389)"/><path class="b" d="M53.088,13.193c0-.754.562-1.189,1.558-1.251l1.135-.065v-.362c0-.442-.293-.692-.858-.692-.462,0-.781.169-.873.466h-.8c.084-.72.761-1.181,1.712-1.181,1.05,0,1.643.523,1.643,1.408v2.862h-.8v-.589h-.065a1.41,1.41,0,0,1-1.258.658,1.266,1.266,0,0,1-1.4-1.254Zm2.693-.358v-.35l-1.023.065c-.577.039-.839.235-.839.6s.327.6.777.6a.988.988,0,0,0,1.085-.916Z" transform="translate(-36.884 -8.382)"/><path class="b" d="M58.259,10.189h.8v.642h.062a1.136,1.136,0,0,1,1.131-.712,1.738,1.738,0,0,1,.369.035v.816a2.265,2.265,0,0,0-.462-.05.982.982,0,0,0-1.069.985v2.474h-.827Z" transform="translate(-37.244 -8.383)"/><path class="b" d="M64.218,10.188h.8v.666h.062a1.254,1.254,0,0,1,1.25-.746,1.363,1.363,0,0,1,1.45,1.558v2.712h-.827v-2.5c0-.673-.293-1.008-.9-1.008a.961.961,0,0,0-1,1.062v2.451h-.827Z" transform="translate(-37.659 -8.382)"/><path class="b" d="M69.161,13.193c0-.754.561-1.189,1.558-1.251l1.135-.065v-.362c0-.442-.293-.692-.858-.692-.462,0-.781.169-.873.466h-.8c.084-.72.761-1.181,1.712-1.181,1.05,0,1.643.523,1.643,1.408v2.862h-.8v-.589h-.065a1.41,1.41,0,0,1-1.258.658,1.266,1.266,0,0,1-1.4-1.254Zm2.693-.358v-.35l-1.023.065c-.577.039-.839.235-.839.6s.327.6.777.6a.988.988,0,0,0,1.085-.916Z" transform="translate(-38.003 -8.382)"/></g></g></svg>