<svg id="Camada_1" data-name="Camada 1" xmlns="http://www.w3.org/2000/svg" xmlns:xlink="http://www.w3.org/1999/xlink" viewBox="0 0 1920 610"><defs><style>.cls-1{fill:url(#Gradiente_sem_nome_47);}.cls-2{fill:#ebeae7;}.cls-3{fill:#f5f5f5;}.cls-4{fill:#e9e9e9;}.cls-5{fill:#ccc;opacity:0.99;}.cls-6{fill:url(#Gradiente_sem_nome_34);}.cls-7{fill:#efb959;}.cls-8{fill:url(#Gradiente_sem_nome_31);}.cls-9{opacity:0.3;fill:url(#Áåçûìÿííûé_ãðàäèåíò_61);}.cls-10{fill:#4d4d4d;}.cls-11,.cls-46{fill:#fff;}.cls-12{fill:#ececec;}.cls-13{fill:#f9a186;}.cls-14,.cls-15{fill:#ee8c74;}.cls-14,.cls-32,.cls-46{opacity:0.5;}.cls-16{fill:#f3db00;}.cls-17{fill:#cc9806;}.cls-18{fill:#ceb032;}.cls-19{fill:url(#Gradiente_sem_nome_14);}.cls-20{fill:#373131;}.cls-21{fill:#3a3434;}.cls-22{fill:#f6f0f0;}.cls-23{fill:#ceb4b7;}.cls-24{fill:#ba9a9d;}.cls-25{fill:#514546;}.cls-26{fill:#1a1a1a;}.cls-27{fill:url(#Gradiente_sem_nome_24);}.cls-28{fill:#453c3d;}.cls-29{fill:#594f4e;}.cls-30{fill:#ccb2b3;}.cls-31{fill:#d4bec0;}.cls-33{fill:#e0d2d2;}.cls-34{fill:url(#Áåçûìÿííûé_ãðàäèåíò_29);}.cls-35{fill:url(#Áåçûìÿííûé_ãðàäèåíò_29-2);}.cls-36{fill:url(#Áåçûìÿííûé_ãðàäèåíò_32);}.cls-37{fill:#cc7833;}.cls-38{fill:url(#Gradiente_sem_nome_20);}.cls-39{fill:url(#Gradiente_sem_nome_18);}.cls-40{fill:#c6a138;}.cls-41{fill:url(#Áåçûìÿííûé_ãðàäèåíò_15);}.cls-42{fill:#caadb1;}.cls-43{fill:url(#Áåçûìÿííûé_ãðàäèåíò_24);}.cls-44{fill:url(#Áåçûìÿííûé_ãðàäèåíò_15-2);}.cls-45{fill:url(#Áåçûìÿííûé_ãðàäèåíò_50);}.cls-47{fill:url(#Áåçûìÿííûé_ãðàäèåíò_29-3);}.cls-48{fill:url(#Áåçûìÿííûé_ãðàäèåíò_32-2);}.cls-49{fill:url(#Gradiente_sem_nome_11);}.cls-50{fill:url(#Áåçûìÿííûé_ãðàäèåíò_15-3);}.cls-51{fill:#baa0a3;}.cls-52{fill:url(#Áåçûìÿííûé_ãðàäèåíò_15-4);}.cls-53{fill:url(#Áåçûìÿííûé_ãðàäèåíò_50-2);}.cls-54{fill:url(#Áåçûìÿííûé_ãðàäèåíò_15-5);}.cls-55{fill:url(#Áåçûìÿííûé_ãðàäèåíò_15-6);}.cls-56{fill:#fdf4f5;}.cls-57{fill:#27405c;}.cls-58{fill:#504250;}.cls-59{fill:#6e606e;}.cls-60{fill:#3c2e3b;}.cls-61{fill:#281a27;}.cls-62{fill:#322431;}.cls-63{fill:url(#Áåçûìÿííûé_ãðàäèåíò_54);}.cls-64{fill:url(#Áåçûìÿííûé_ãðàäèåíò_54-2);}.cls-65{fill:url(#Áåçûìÿííûé_ãðàäèåíò_15-7);}.cls-66{fill:url(#Áåçûìÿííûé_ãðàäèåíò_50-3);}.cls-67{fill:url(#Áåçûìÿííûé_ãðàäèåíò_15-8);}.cls-68{fill:url(#Áåçûìÿííûé_ãðàäèåíò_10);}.cls-69{fill:url(#Áåçûìÿííûé_ãðàäèåíò_10-2);}.cls-70{fill:#553326;}.cls-71{fill:#7b2e28;}.cls-72{fill:#462921;}.cls-73{fill:#fe8473;}.cls-74{fill:#feb696;}.cls-75{fill:#663e28;}.cls-76{fill:#3d1108;}.cls-77{fill:#371a15;}.cls-78{fill:#673f2a;}.cls-79{fill:#26120b;}.cls-80{fill:#646567;}.cls-81{fill:#252f3e;}.cls-82{fill:#c8322c;}.cls-83{fill:url(#Gradiente_sem_nome_27);}.cls-84{fill:#ff5c4b;}</style><linearGradient id="Gradiente_sem_nome_47" x1="963.26" y1="45.42" x2="963.26" y2="613.11" gradientUnits="userSpaceOnUse"><stop offset="0" stop-color="#fff"/><stop offset="0.18" stop-color="#f7f7f7"/><stop offset="0.54" stop-color="#ededed"/><stop offset="1" stop-color="#eaeaea"/></linearGradient><linearGradient id="Gradiente_sem_nome_34" x1="642.44" y1="476.82" x2="847.63" y2="476.82" gradientUnits="userSpaceOnUse"><stop offset="0" stop-color="#cc9806"/><stop offset="0.36" stop-color="#ddb603"/><stop offset="0.76" stop-color="#edd101"/><stop offset="1" stop-color="#f3db00"/></linearGradient><linearGradient id="Gradiente_sem_nome_31" x1="752.23" y1="403.89" x2="752.23" y2="296.19" xlink:href="#Gradiente_sem_nome_34"/><linearGradient id="Áåçûìÿííûé_ãðàäèåíò_61" x1="1112.52" y1="398.85" x2="1112.52" y2="32.15" gradientUnits="userSpaceOnUse"><stop offset="0" stop-color="#e44b45"/><stop offset="0.53" stop-color="#f55c4f"/><stop offset="1" stop-color="#f65"/></linearGradient><linearGradient id="Gradiente_sem_nome_14" x1="941.32" y1="440.47" x2="1120.74" y2="440.47" gradientUnits="userSpaceOnUse"><stop offset="0" stop-color="#f3db00"/><stop offset="1" stop-color="#cc9806"/></linearGradient><linearGradient id="Gradiente_sem_nome_24" x1="1155.12" y1="466.65" x2="1244.26" y2="466.65" xlink:href="#Gradiente_sem_nome_34"/><linearGradient id="Áåçûìÿííûé_ãðàäèåíò_29" x1="1221.86" y1="314.13" x2="1240.6" y2="314.13" gradientUnits="userSpaceOnUse"><stop offset="0" stop-color="#dbc6c9"/><stop offset="1" stop-color="#f3eaeb"/></linearGradient><linearGradient id="Áåçûìÿííûé_ãðàäèåíò_29-2" x1="1204.58" y1="311.08" x2="1222.34" y2="311.08" xlink:href="#Áåçûìÿííûé_ãðàäèåíò_29"/><linearGradient id="Áåçûìÿííûé_ãðàäèåíò_32" x1="1201.82" y1="311.08" x2="1219.58" y2="311.08" gradientUnits="userSpaceOnUse"><stop offset="0" stop-color="#ceb4b7"/><stop offset="1" stop-color="#dfcdcf"/></linearGradient><linearGradient id="Gradiente_sem_nome_20" x1="1150.88" y1="383.62" x2="1198.76" y2="383.62" xlink:href="#Gradiente_sem_nome_34"/><linearGradient id="Gradiente_sem_nome_18" x1="1162.11" y1="333.64" x2="1162.11" y2="287.61" xlink:href="#Gradiente_sem_nome_34"/><linearGradient id="Áåçûìÿííûé_ãðàäèåíò_15" x1="1169.4" y1="326.68" x2="1169.4" y2="287.61" gradientUnits="userSpaceOnUse"><stop offset="0" stop-color="#ceb4b7"/><stop offset="1" stop-color="#f3eaeb"/></linearGradient><linearGradient id="Áåçûìÿííûé_ãðàäèåíò_24" x1="1157.6" y1="307.14" x2="1181.21" y2="307.14" gradientUnits="userSpaceOnUse"><stop offset="0" stop-color="#f3eaeb"/><stop offset="1" stop-color="#c4a5ab"/></linearGradient><linearGradient id="Áåçûìÿííûé_ãðàäèåíò_15-2" x1="1169.4" y1="320.93" x2="1169.4" y2="293.35" xlink:href="#Áåçûìÿííûé_ãðàäèåíò_15"/><linearGradient id="Áåçûìÿííûé_ãðàäèåíò_50" x1="1159.07" y1="307.14" x2="1179.74" y2="307.14" gradientUnits="userSpaceOnUse"><stop offset="0" stop-color="#c4a5ab"/><stop offset="1" stop-color="#f3eaeb"/></linearGradient><linearGradient id="Áåçûìÿííûé_ãðàäèåíò_29-3" x1="1108.75" y1="311.08" x2="1126.51" y2="311.08" xlink:href="#Áåçûìÿííûé_ãðàäèåíò_29"/><linearGradient id="Áåçûìÿííûé_ãðàäèåíò_32-2" x1="1105.99" y1="311.08" x2="1123.75" y2="311.08" xlink:href="#Áåçûìÿííûé_ãðàäèåíò_32"/><linearGradient id="Gradiente_sem_nome_11" x1="984.98" y1="462.7" x2="984.98" y2="413.84" gradientUnits="userSpaceOnUse"><stop offset="0" stop-color="#e2c447"/><stop offset="0.39" stop-color="#eacf25"/><stop offset="0.77" stop-color="#f1d80a"/><stop offset="1" stop-color="#f3db00"/></linearGradient><linearGradient id="Áåçûìÿííûé_ãðàäèåíò_15-3" x1="1215.66" y1="309.23" x2="1215.66" y2="303.67" xlink:href="#Áåçûìÿííûé_ãðàäèåíò_15"/><linearGradient id="Áåçûìÿííûé_ãðàäèåíò_15-4" x1="1241.7" y1="264.82" x2="1241.7" y2="230.27" xlink:href="#Áåçûìÿííûé_ãðàäèåíò_15"/><linearGradient id="Áåçûìÿííûé_ãðàäèåíò_50-2" x1="577.59" y1="-2396.22" x2="577.59" y2="-2404.69" gradientTransform="matrix(0.78, 0.62, -0.62, 0.78, -701.43, 1771.43)" xlink:href="#Áåçûìÿííûé_ãðàäèåíò_50"/><linearGradient id="Áåçûìÿííûé_ãðàäèåíò_15-5" x1="1215.67" y1="276.65" x2="1240.08" y2="276.65" xlink:href="#Áåçûìÿííûé_ãðàäèåíò_15"/><linearGradient id="Áåçûìÿííûé_ãðàäèåíò_15-6" x1="-7628.85" y1="309.58" x2="-7628.85" y2="303.67" gradientTransform="matrix(-1, 0, 0, 1, -6508.89, 0)" xlink:href="#Áåçûìÿííûé_ãðàäèåíò_15"/><linearGradient id="Áåçûìÿííûé_ãðàäèåíò_54" x1="1077.8" y1="312.58" x2="1085.13" y2="312.58" gradientTransform="translate(91.51 -223.38) rotate(12.31)" gradientUnits="userSpaceOnUse"><stop offset="0" stop-color="#f3eaeb"/><stop offset="1" stop-color="#dbc6c9"/></linearGradient><linearGradient id="Áåçûìÿííûé_ãðàäèåíò_54-2" x1="1060.4" y1="586.9" x2="1082.24" y2="586.9" gradientTransform="matrix(1, 0, 0, 1.13, 34.42, -351.53)" xlink:href="#Áåçûìÿííûé_ãðàäèåíò_54"/><linearGradient id="Áåçûìÿííûé_ãðàäèåíò_15-7" x1="-7602.46" y1="263.6" x2="-7602.46" y2="231.6" gradientTransform="matrix(-1, 0, 0, 1, -6508.89, 0)" xlink:href="#Áåçûìÿííûé_ãðàäèåíò_15"/><linearGradient id="Áåçûìÿííûé_ãðàäèåíò_50-3" x1="-6355.39" y1="3095.15" x2="-6355.39" y2="3086.68" gradientTransform="matrix(-1, 0, 0, 1, -5261.87, -2842.36)" xlink:href="#Áåçûìÿííûé_ãðàäèåíò_50"/><linearGradient id="Áåçûìÿííûé_ãðàäèåíò_15-8" x1="-7628.68" y1="276.65" x2="-7604.27" y2="276.65" gradientTransform="matrix(-1, 0, 0, 1, -6508.89, 0)" xlink:href="#Áåçûìÿííûé_ãðàäèåíò_15"/><radialGradient id="Áåçûìÿííûé_ãðàäèåíò_10" cx="1153.54" cy="183.61" r="8.96" gradientTransform="translate(669.78 -894.18) rotate(58.28)" gradientUnits="userSpaceOnUse"><stop offset="0" stop-color="#fe7b67"/><stop offset="1" stop-color="#f9a186"/></radialGradient><radialGradient id="Áåçûìÿííûé_ãðàäèåíò_10-2" cx="1124.12" cy="183.18" r="8.01" gradientTransform="translate(1010.64 -952.95) rotate(76.72)" xlink:href="#Áåçûìÿííûé_ãðàäèåíò_10"/><linearGradient id="Gradiente_sem_nome_27" x1="1106.75" y1="167.47" x2="1106.75" y2="120.75" gradientUnits="userSpaceOnUse"><stop offset="0" stop-color="#c6a138"/><stop offset="0.29" stop-color="#d6b624"/><stop offset="0.74" stop-color="#ebd10a"/><stop offset="1" stop-color="#f3db00"/></linearGradient></defs><polygon class="cls-1" points="1923.26 613.18 3.26 613.18 4.22 3.18 1922.3 3.18 1923.26 613.18"/><path class="cls-2" d="M1236.35,571.88H637.5a11.83,11.83,0,0,1-11.8-11.8h0a11.83,11.83,0,0,1,11.8-11.79h598.85a11.83,11.83,0,0,1,11.8,11.79h0A11.83,11.83,0,0,1,1236.35,571.88Z"/><path class="cls-3" d="M1228.41,140.84c29.81-16.94,27.82,19.9,13.23,72s3.33,43,20,22.81,35.16,4.87.73,53-50.19,62.19-33.46,67.4,61.52-55.78,77-34.54S1202.81,487.9,1148.61,477.86,1068.78,348,1111.54,329.54s32.08,31.42,53.35,12.81-34.15-65-3.22-98.73,27.06,19.37,43.82-2.47S1186.26,164.8,1228.41,140.84Z"/><path class="cls-4" d="M1311,299.52c22.86,7.3,9.34,31-16.57,57s-12.52,31.17,3.89,28,18.62,25.43-17.36,36.28-49.8,10.46-41.91,24.51,54.17,1,56,25.12-115.29,47.55-143.15,6.65-2.38-138,28.45-123.61,7.93,41.43,26.44,42.24,2.16-65.47,31.29-68.78,9.09,30.13,26.07,25.92S1278.62,289.18,1311,299.52Z"/><path class="cls-5" d="M1317.87,373c-12.15-16.49-27.59.91-41.59,29s-21.79,18.63-23.74,4.52-25.65-8.12-24.59,23.94,5.15,43.13-8.37,40.59S1204,427.51,1184,432.65s-7,106.22,33.72,117.58,112.29-35.8,92.19-56.78-35.67,4.9-41.38-9.84,52.35-19.64,47.07-44.1-26.84.89-28.08-14S1335.06,396.33,1317.87,373Z"/><path class="cls-4" d="M602,263c10.74-17.45,27.57-1.39,43.86,25.43s23.25,16.75,24,2.52,24.88-10.22,26.5,21.82-1.55,43.41,11.71,39.75,11.94-44.67,32.29-41.22,15.76,105.28-23.84,120S601.68,404.91,620,382.33s36,1.92,40.42-13.24-53.8-15.22-50.57-40,26.82-1.36,26.82-16.3S586.81,287.63,602,263Z"/><path class="cls-3" d="M732.39,110c-24.39-4.47-23.58,23.67-12.66,60s-3.76,34.49-17.19,23.66-29.35,14.11-1.84,41.51S741,268.94,727,277.9s-49.85-25.44-63.22-4.35S745.66,373,791,349.3s69.36-124.65,34.24-126.5-27.39,33.89-44.65,25.63,29.9-60.72,5-77.91-22.94,23-36.37,10.92S766.88,116.28,732.39,110Z"/><path class="cls-3" d="M560.52,420.25c2.71-20.3,24.62-12.49,50.42,5.37s28.06,5.84,23-7.48,18.57-19.46,33.09,9.14,16.26,40.28,26.89,31.54-7.29-45.67,12.7-50.8,57.27,89.74,27.08,119.29S618,550,625.54,522s33.62-12.89,31.52-28.55-55.34,8-62.49-16,23.95-12.15,17.86-25.79S556.69,449,560.52,420.25Z"/><rect class="cls-6" x="642.44" y="403.89" width="205.19" height="145.86"/><rect class="cls-7" x="728.81" y="403.89" width="32.45" height="24.1"/><rect class="cls-7" x="728.81" y="525.65" width="32.45" height="24.1"/><rect class="cls-8" x="692.82" y="296.19" width="118.82" height="107.7"/><rect class="cls-7" x="742.83" y="296.19" width="18.79" height="17.8"/><rect class="cls-7" x="742.83" y="386.1" width="18.79" height="17.8"/><path class="cls-9" d="M1216.43,197.87h0a115.42,115.42,0,1,0-207.8,0h0l103.91,201ZM1112.52,79.63a67.94,67.94,0,1,1-67.93,67.94A67.93,67.93,0,0,1,1112.52,79.63Z"/><path class="cls-10" d="M910.08,58.35h0A108.42,108.42,0,0,1,1018.5,166.76V449.51A108.42,108.42,0,0,1,910.08,557.93H877.71A108.42,108.42,0,0,1,769.29,449.51V199.14A140.8,140.8,0,0,1,910.08,58.35Z"/><path class="cls-11" d="M979.71,69.64H950.06a9.64,9.64,0,0,0-9.65,9.64v8a6.21,6.21,0,0,1-6.19,6.19H863.34a6.21,6.21,0,0,1-6.19-6.19v-8a9.64,9.64,0,0,0-9.64-9.64H818.43a38.15,38.15,0,0,0-38,38V518.51a27.77,27.77,0,0,0,27.69,27.69H979.71a27.77,27.77,0,0,0,27.69-27.69V97.33A27.77,27.77,0,0,0,979.71,69.64Z"/><path class="cls-12" d="M823.19,169.59l1.46-93.77h-6.22a32,32,0,0,0-31.85,31.85v61.92Z"/><polygon class="cls-3" points="821.42 283.36 823.13 173.28 786.58 173.28 786.58 265.31 821.42 283.36"/><polygon class="cls-12" points="1001.21 376.48 1001.21 346.21 999.37 270.99 919.4 270.99 924.08 336.53 1001.21 376.48"/><polygon class="cls-3" points="924.76 346.02 930.69 429.02 1001.21 429.02 1001.21 385.62 924.76 346.02"/><polygon class="cls-3" points="1001.21 210.62 1001.21 113.33 912.3 170.59 1001.21 210.62"/><polygon class="cls-3" points="1001.21 459.64 1001.21 433.42 930.84 433.42 930.84 480.88 1001.21 459.64"/><path class="cls-3" d="M790.08,530.25a21.52,21.52,0,0,0,18,9.76h11.17V521.45Z"/><path class="cls-3" d="M930.84,487.76V540h48.87a21.53,21.53,0,0,0,21.5-21.5v-52Z"/><path class="cls-3" d="M900.52,117l-1.36-17.33H863.34A12.39,12.39,0,0,1,851,87.28v-8a3.47,3.47,0,0,0-3.46-3.46H830.35L829.76,117Z"/><polygon class="cls-3" points="900.82 120.75 829.71 120.75 829.01 169.59 904.65 169.59 900.82 120.75"/><polygon class="cls-3" points="895.78 433.42 895.78 491.47 924.76 482.72 924.76 433.42 895.78 433.42"/><polygon class="cls-3" points="919.71 361.16 918.26 342.66 875.04 320.27 875.04 361.16 919.71 361.16"/><polygon class="cls-3" points="875.04 364.93 875.04 429.02 925.05 429.02 920.01 364.93 875.04 364.93"/><path class="cls-3" d="M958.42,75.82h-8.36a3.46,3.46,0,0,0-3.46,3.46v8a12.4,12.4,0,0,1-12.38,12.38H902.83l5.85,68.87,49.74-32Z"/><path class="cls-3" d="M979.71,75.82H962.19v58.25l39-25.12V97.33A21.53,21.53,0,0,0,979.71,75.82Z"/><polygon class="cls-3" points="862.64 508.35 825.32 519.61 825.32 540.01 862.64 540.01 862.64 508.35"/><polygon class="cls-3" points="866.4 507.21 866.4 540.01 924.76 540.01 924.76 489.6 866.4 507.21"/><rect class="cls-3" x="825.32" y="433.42" width="66.69" height="31.24"/><rect class="cls-12" x="786.58" y="433.42" width="32.67" height="31.24"/><polygon class="cls-3" points="825.32 468.43 825.32 512.73 892.01 492.6 892.01 468.43 825.32 468.43"/><path class="cls-12" d="M786.58,468.42v50.09a21.41,21.41,0,0,0,.77,5.69l31.9-9.63V468.42Z"/><polygon class="cls-3" points="825.77 397.23 825.32 429.02 870.76 429.02 870.76 397.23 825.77 397.23"/><polygon class="cls-3" points="870.76 318.06 821.28 292.43 786.58 274.46 786.58 429.02 819.15 429.02 819.67 393.47 870.76 393.47 870.76 318.06"/><polygon class="cls-3" points="953.9 193.36 953.9 263.35 1001.21 263.35 1001.21 214.66 953.9 193.36"/><polygon class="cls-3" points="950.14 191.67 909.08 173.18 916.74 263.35 950.14 263.35 950.14 191.67"/><polygon class="cls-12" points="909.12 226.44 905.15 175.89 828.96 173.28 828.41 226.44 909.12 226.44"/><polygon class="cls-12" points="828.37 230.2 827.78 286.65 917.51 333.13 909.42 230.2 828.37 230.2"/><path class="cls-13" d="M1207.15,301.44s1.26-2.91,2.89-2.3,2.57.9,3.73,0,5.3-1,6.56,1.18,2.89-1.79,4-1.18,3.13,3.38,4.39,3.25,3.92-1.51,6.92,10c1.61,5.84-4.29,11.23-5.67,11.11s-1.71-1.26-2.48-.51-3,2.14-4.54,2-3.14-3.21-3.39-3.17-1.51,2.78-3.14,2.6-3.64-2.64-4-2.6-5.08,3.8-9.13-2.6C1203.29,319.21,1201.13,311.66,1207.15,301.44Z"/><path class="cls-14" d="M1233,310.75c-.57-1.85-3.11-2-2.07,1.51.92,3.11-3.5,10-4.52,11.56a6.71,6.71,0,0,0,1.13-.85c.39-.38.67-.27,1-.06C1231,319,1233.41,312.21,1233,310.75Z"/><path class="cls-14" d="M1225.3,310.75c-.57-1.85-3.11-2-2.07,1.51s-4.5,10.66-4.78,11c.59-.7,1-1.45,1.13-1.47a7.86,7.86,0,0,1,1.09,1.36C1223.42,319.8,1225.82,312.45,1225.3,310.75Z"/><path class="cls-14" d="M1212.42,321.81c.13,0,.43.25.84.61,2.68-3.34,4.88-10,4.37-11.67-.57-1.85-3.11-2-2.07,1.51,1,3.28-3.14,9.08-3.67,9.82A3.11,3.11,0,0,1,1212.42,321.81Z"/><path class="cls-15" d="M1183.75,299.14s14.58,2.6,23.4,2.3a27.07,27.07,0,0,0-3.86,17.77h-21.53Z"/><path class="cls-16" d="M936.8,304.1v82.1a16.34,16.34,0,0,0,16.29,16.29h73.82a16.34,16.34,0,0,0,16.29-16.29V304.1Z"/><path class="cls-17" d="M963.26,304.1v82.1a16.34,16.34,0,0,0,16.29,16.29h47.36a16.34,16.34,0,0,0,16.29-16.29V304.1Z"/><path class="cls-16" d="M1027.57,279.8H952.44a16.48,16.48,0,0,0-16.58,16.28v8h108.28v-8A16.48,16.48,0,0,0,1027.57,279.8Z"/><path class="cls-17" d="M1027.57,279.8H979.36a16.48,16.48,0,0,0-16.57,16.28v8h81.35v-8A16.48,16.48,0,0,0,1027.57,279.8Z"/><rect class="cls-18" x="936.8" y="304.1" width="106.4" height="2.52"/><path class="cls-19" d="M1120.74,465.05c-4.46-28.17-7-47.91-8-62.56H969.93s-30.22,8.69-28.54,65.11a11.17,11.17,0,0,0,11.16,10.85h86.13s15.6-13.4,35.93-13.4Z"/><path class="cls-20" d="M1113.16,375.51s-47.58-2.56-71.3,0-27.11,3.57-29.75,27h100.66Z"/><path class="cls-21" d="M1248.15,510.57c0,28-13.37,50.68-42,50.68s-44.93-22.69-44.93-50.68,19.45-52.91,43.44-52.91C1231.81,457.66,1248.15,482.58,1248.15,510.57Z"/><ellipse class="cls-22" cx="1195.98" cy="509.45" rx="23.21" ry="33.97"/><ellipse class="cls-23" cx="1195.98" cy="509.45" rx="21.35" ry="32.49"/><path class="cls-24" d="M1184.52,509.45c0-14.3,5.79-26.44,13.84-30.78a13.42,13.42,0,0,0-2.38-.22c-11.25,0-20.38,13.88-20.38,31s9.13,31,20.38,31a13.42,13.42,0,0,0,2.38-.22C1190.31,535.9,1184.52,523.76,1184.52,509.45Z"/><path class="cls-25" d="M1194.89,499.19l-27.52-39.91-10.81,7.46,27.52,39.91c.74,1.07,3.76.26,6.74-1.79S1195.63,500.26,1194.89,499.19Z"/><ellipse class="cls-26" cx="1189.49" cy="502.92" rx="6.06" ry="1.93" transform="translate(-75.25 764.15) rotate(-34.59)"/><path class="cls-25" d="M1198.39,509.64a3.5,3.5,0,0,0-3-3.7h0l-3.38-5h0c-.21-.3-1.54.25-3,1.23s-2.44,2-2.23,2.32h0l2.53,3.72a4.24,4.24,0,0,0-.23,1.4,3.46,3.46,0,0,0,3.16,3.71h3.15A3.5,3.5,0,0,0,1198.39,509.64Z"/><path class="cls-21" d="M1081.34,510.57c0,28-13.36,50.68-41.95,50.68s-44.93-22.69-44.93-50.68,19.45-52.91,43.44-52.91C1065,457.66,1081.34,482.58,1081.34,510.57Z"/><ellipse class="cls-22" cx="1029.18" cy="509.45" rx="23.21" ry="33.97"/><ellipse class="cls-23" cx="1029.18" cy="509.45" rx="21.35" ry="32.49"/><path class="cls-24" d="M1017.71,509.45c0-14.3,5.8-26.44,13.85-30.78a13.51,13.51,0,0,0-2.38-.22c-11.26,0-20.38,13.88-20.38,31s9.12,31,20.38,31a13.51,13.51,0,0,0,2.38-.22C1023.51,535.9,1017.71,523.76,1017.71,509.45Z"/><path class="cls-27" d="M1191.71,427.77c14.68-.34,43.18,6.53,52.34,34,1.26,3.51-3.26,4.52-9.16,5.27s-30.13,1.25-38.91,1.25h-15.81c-2.58,0-11.33,9.26-18.91,26.58-3.9,8.85-3.81,9.41-2.31,10.64,0,0-1.31-.24-3.1-2.78s-.75-39.58,8.38-55.11S1179.66,428.06,1191.71,427.77Z"/><path class="cls-16" d="M1159,491c.1-3.49.36-7.73.88-12.38,1.42-12.85,4.12-23.17,7.6-29.08,3.64-6.19,6.67-10.3,9.69-13,4.32-3.87,45.52,27.41,35.05,27.61-15,.3-32,.48-32,.48C1174.23,464.6,1165.1,477.78,1159,491Z"/><path class="cls-20" d="M1140.32,505.53h-77.94c-5.28,0-22.17-22-23.7-27.08h-35s6.71,27.48,9.72,34.9,8.59,9.31,18.13,9.31h83.91C1123,522.66,1127.14,521.91,1140.32,505.53Z"/><path class="cls-28" d="M1102,505.53h-39.59c-5.28,0-22.17-22-23.7-27.08h-35s6.71,27.48,9.72,34.9,8.59,9.31,18.13,9.31h45.56C1084.65,522.66,1088.8,521.91,1102,505.53Z"/><path class="cls-29" d="M1062.38,505.53c-2.38,0-7.13-4.48-11.76-9.85H1022.9c-7.15,0-6.84,7.7-6,11.14C1019,516,1022.58,519,1031.56,519h45.56c4,0,6.73-3.87,11.79-13.42Z"/><path class="cls-30" d="M1038.68,478.45s15.6-13.4,35.93-13.4h46.13s5.65,34.45-16.57,34.45h-40.29C1056.16,499.5,1038.68,478.45,1038.68,478.45Z"/><path class="cls-31" d="M1204.7,351c-23.53-28.24-73.08-21.46-83.32,0s-13.63,32-.64,114.09c0,0,5.65,34.45-16.57,34.45h-40.29c-7.72,0-25.2-21.05-25.2-21.05,1.53,5.11,18.42,27.08,23.7,27.08H1159s-1.31-.24-3.1-2.78-.75-39.58,8.38-55.11,15.43-19.58,27.48-19.87,33,4.21,45.38,20.66h0S1228.24,379.2,1204.7,351Z"/><g class="cls-32"><path class="cls-33" d="M1126,477c.58-19.16-6.4-40-8.47-88.34-1.92-44.79,30.4-55,30.45-55-12.33,2.63-22.55,8.82-26.61,17.32-10.24,21.47-13.63,32-.64,114.09,0,0,5.65,34.45-16.57,34.45h-40.29c-7.72,0-25.2-21.05-25.2-21.05,1.53,5.11,18.42,27.08,23.7,27.08h43.49C1120.93,500.44,1125.63,489.49,1126,477Z"/></g><g class="cls-32"><path class="cls-33" d="M1148,333.64l7.1-1.09A62.55,62.55,0,0,0,1148,333.64Z"/></g><path class="cls-34" d="M1239.31,312.49l-17.45-.61v3.82l17.45.68c.71,0,1.29-.87,1.29-1.94S1240,312.49,1239.31,312.49Z"/><path class="cls-33" d="M1157.67,332.35l-9.68,1.29s-32,10.55-23.67,59.87,14.53,41.8,27.22,37.28,43.92-12.83,63.89-3,10.17-23.71,5.65-34.63c-2.49-6-9.89-25.5-16-41.73l-.36-.44C1192.84,336.73,1174.38,331.4,1157.67,332.35Z"/><path class="cls-35" d="M1217.54,309.23l-3.6-.7h0c-.63-3.24-2.44-5.57-4.56-5.57h-2.76v1.48a11.84,11.84,0,0,0,0,13.29v1.48h2.76a3.34,3.34,0,0,0,2.25-.95h0l5.67.32h.24a4.68,4.68,0,1,0,0-9.35Z"/><path class="cls-36" d="M1214.78,309.23l-3.6-.7h0c-.64-3.24-2.44-5.57-4.56-5.57-2.65,0-4.8,3.63-4.8,8.12s2.15,8.13,4.8,8.13a3.34,3.34,0,0,0,2.25-.95h0l5.67.32h.24a4.68,4.68,0,1,0,0-9.35Z"/><path class="cls-37" d="M1176.58,334a65.33,65.33,0,0,0-28.59-.38h0s11.15,12.17,22.86,104.17h0c6.13-7.53,11.91-9.83,20.86-10a55.59,55.59,0,0,1,7,.34h0S1195.71,373.69,1176.58,334Z"/><path class="cls-38" d="M1150.88,333.1c.29.42,13.85,20.55,22.5,101.88h0c5.25-5.3,10.62-7,18.33-7.22a55.59,55.59,0,0,1,7,.34h0s-3-54.42-22.18-94.09A65.59,65.59,0,0,0,1150.88,333.1Z"/><path class="cls-39" d="M1117.91,317.64s11.33-.56,20,0,9.5,8.47,10.11,16h27.24s-3.85-16.13,9.89-16.25c0,0,16.76.63,19.68.82s4.52-3.77,4.42-6.78-1-6.78-4.89-7l-19.11-1.41-20.33-15.44s-10.55-.56-19.77,9.42c-7.24,8.37-30.12,6.49-30.12,6.49Z"/><path class="cls-40" d="M1137.88,317.64c5.19.34,7.57,3.32,8.78,7.27a32.59,32.59,0,0,1,9.53,2.83c9.87,5.28,17.59-1.13,18.85-2.27.78-4,3.27-8,10.08-8.08,0,0,16.76.63,19.68.82s4.52-3.77,4.42-6.78a13,13,0,0,0-.32-2.6c-14.57,12.2-23.78-1.69-23.78-1.69L1150.54,303c-20.47,12.86-35.54.56-35.54.56l2.91,14.12S1129.24,317.08,1137.88,317.64Z"/><ellipse class="cls-41" cx="1169.4" cy="307.14" rx="15.72" ry="19.54"/><path class="cls-42" d="M1153.68,307.14c0-10.79,7-19.53,15.72-19.53h-3.51c-8.68,0-15.72,8.74-15.72,19.53s7,19.54,15.72,19.54h3.51C1160.72,326.68,1153.68,317.93,1153.68,307.14Z"/><ellipse class="cls-43" cx="1169.4" cy="307.14" rx="11.8" ry="14.67"/><ellipse class="cls-44" cx="1169.4" cy="307.14" rx="11.09" ry="13.79"/><ellipse class="cls-45" cx="1169.4" cy="307.14" rx="10.34" ry="12.85"/><ellipse class="cls-46" cx="1170.36" cy="305.11" rx="9.84" ry="11.26"/><path class="cls-46" d="M1179.9,306.43c-.1,4.89-.78-.11-6.52-1.32-4-.84-9.32,6.06-9.32-1.24s-.47-8.48,5.45-9.42S1180.05,299.13,1179.9,306.43Z"/><path class="cls-46" d="M1177.15,305.11c-1.39,1,.7-4-3.6-7.14-1.27-.94-1-1.21-5-.62-2.35.35-2.22-1.34,1.31-1.9C1174.84,294.66,1180.62,302.58,1177.15,305.11Z"/><path class="cls-47" d="M1121.71,309.23l-3.6-.7h0c-.63-3.24-2.43-5.57-4.56-5.57h-2.76v1.48a11.84,11.84,0,0,0,0,13.29v1.48h2.76a3.32,3.32,0,0,0,2.25-.95h0l5.68.32h.23a4.68,4.68,0,1,0,0-9.35Z"/><path class="cls-48" d="M1119,309.23l-3.6-.7h0c-.63-3.24-2.43-5.57-4.56-5.57-2.65,0-4.8,3.63-4.8,8.12s2.15,8.13,4.8,8.13a3.34,3.34,0,0,0,2.25-.95h0l5.67.32h.24a4.68,4.68,0,1,0,0-9.35Z"/><path class="cls-17" d="M1024.85,413.84H955.07c-6.93,8.67-13.66,23.6-13.74,48.86h83.52c10.09,0,18.35-5.73,18.35-12.73v-23.4C1043.2,419.57,1034.94,413.84,1024.85,413.84Z"/><path class="cls-49" d="M1010.29,413.84H955.07c-6.93,8.67-13.66,23.6-13.74,48.86h69c10.09,0,18.35-5.73,18.35-12.73v-23.4C1028.64,419.57,1020.38,413.84,1010.29,413.84Z"/><path class="cls-50" d="M1213.94,308.53l3.6.7s0-2.6,0-4.11-2.4-1.93-2.77-.85-1,3.54-1,3.54S1213.89,308.3,1213.94,308.53Z"/><ellipse class="cls-51" cx="1241.15" cy="248.34" rx="12.43" ry="18.07"/><ellipse class="cls-52" cx="1241.7" cy="247.54" rx="11.88" ry="17.27"/><path class="cls-53" d="M1244.15,250.21c-1.46,1.84-3.69,2.49-5,1.45s-1.18-3.35.27-5.19,3.69-2.48,5-1.45S1245.6,248.38,1244.15,250.21Z"/><path class="cls-54" d="M1215.67,303.68s2.72-22.74,3.91-30.16c1.71-10.72,13-20,18.51-24,1.85-1.32,2.84,1.37,1.05,2.58-5.41,3.66-16.45,12.19-17.68,21.57-1.11,8.47-4.39,30.39-4.39,30.39Z"/><path class="cls-55" d="M1117.92,308.75s0-2.12,0-3.63,2.4-1.93,2.78-.85,1.32,5.28,1.32,5.28C1122,309.77,1117.92,308.75,1117.92,308.75Z"/><path class="cls-56" d="M1104.17,499.5c5.21,0,8.88-1.89,11.46-4.79h0s-49.17-2-50.05-2-.63-1.2-.63-1.2-.75,0-.82,2.89,0,5.08,0,5.08Z"/><path class="cls-57" d="M1092.87,467c-8.09-.57-13.83,5.79-15.24,8.45s-1.42,3-3.49,1.9-5.65-3.57-4.8-5.83c0,0-3.76-.29-4.23,8a97.44,97.44,0,0,0-.16,12l0,.3c0,.36.07.9.66.9.88,0,50.05,2,50.05,2h0a21.65,21.65,0,0,0,4.49-9.15S1101,467.59,1092.87,467Z"/><path class="cls-56" d="M1102.62,479.85a31.5,31.5,0,0,1,5-.55,50.09,50.09,0,0,1,6.24.71,1.67,1.67,0,0,0-.41-1.44,4.61,4.61,0,0,0-3-1.36,31.18,31.18,0,0,0-5.22-.49,36.62,36.62,0,0,0-5.37.64c-.67.05-2.28.95-1.08,1.88A4.37,4.37,0,0,0,1102.62,479.85Z"/><path class="cls-56" d="M1098.58,476.55a31,31,0,0,1,5-.56,49.69,49.69,0,0,1,6.24.72,1.67,1.67,0,0,0-.41-1.44,5.57,5.57,0,0,0-3.24-1.3,28.23,28.23,0,0,0-5-.55,36.4,36.4,0,0,0-5.36.64c-.67.05-2.28.95-1.09,1.88A4.38,4.38,0,0,0,1098.58,476.55Z"/><path class="cls-56" d="M1094.49,473.4a31,31,0,0,1,5-.56,49.44,49.44,0,0,1,6.23.72c.08-.46-.49-1.15-.92-1.64a6,6,0,0,0-3.34-1.3,21.7,21.7,0,0,0-4.36-.35,36.62,36.62,0,0,0-5.37.64c-.67,0-2.28.95-1.08,1.88A4.4,4.4,0,0,0,1094.49,473.4Z"/><path class="cls-56" d="M1074.14,477.38c2.07,1.13,2.07.76,3.49-1.9s7.15-9,15.24-8.45l-1.17-1.13s-9.84,4.37-19.69-.28l-2.67,5.93C1068.49,473.81,1072.07,476.25,1074.14,477.38Z"/><path class="cls-58" d="M1066.8,447.64l.94,18s8.76,5.31,28.15,0c0,0,4.28-15.54,4.77-18.13C1095.58,445.33,1078.14,449.1,1066.8,447.64Z"/><ellipse class="cls-59" cx="1083.73" cy="447.54" rx="16.93" ry="4.08"/><path class="cls-60" d="M1102.48,329.8c-12-7.83-17.89-8.58-30.5-6.32S1017,341,1017,341s-3.37,32.54,14.79,35.76c20.61-2.38,27.57-11.48,39.43-12.42,6.59-.19,5.46,4.83,5.46,10,0,5.05-7.13,69.08-7.56,73a.55.55,0,0,0,0,.18c0,1.95,6.55,3.53,14.63,3.53s14.64-1.58,14.64-3.53c0,0,9.94-63.07,12.58-78.32S1114.53,337.63,1102.48,329.8Z"/><path class="cls-61" d="M1071.22,364.33c-11.86.94-18.82,10-39.43,12.42l44.89-2.38C1076.68,369.16,1077.81,364.14,1071.22,364.33Z"/><path class="cls-62" d="M1148,333.64a42.64,42.64,0,0,0-1.33-8.73c-16.07-2.7-42.14,6.4-42.14,6.4h0c9.88,8.29,8.9,23.59,6.43,37.91-.27,1.58-.62,3.66-1,6.13l3.23.16c1.38-9.68,4.3-16.31,8.23-24.55,4.06-8.5,14.29-14.69,26.62-17.32Z"/><path class="cls-16" d="M1150.17,238.13c-5-20.83-30.37-26.36-30.37-26.36-11.27-1.25-21.44-.88-32-8.14a15,15,0,0,0-7.52,4.1c-48.19,8.13-56.48,40.63-58.36,45.34S1031,262,1031,262c-11.58,30.35-16.1,81.11-16.1,81.11h1.93c.06-1.31.14-2.08.14-2.08s42.36-15.25,55-17.51,18.45-1.51,30.5,6.32a22.43,22.43,0,0,1,2,1.51h0c4-20.79,19.23-56.28,19.23-56.28,17.51,1.26,27.79-8.61,27.79-8.61A117.37,117.37,0,0,0,1150.17,238.13Z"/><path class="cls-40" d="M1150.88,263.6c-7.07,5.65-22.05,9.92-22.3,4a56.64,56.64,0,0,0-2.51-12.86c-7.78,47.69-28.86,38.15-37,39.65s-36.27-.49-41.16-2.4,0-25.53,0-25.53l-18.28-.51c-10.52,30.6-14.67,77.15-14.67,77.15h1.93c.06-1.31.14-2.08.14-2.08s42.36-15.25,55-17.51,18.45-1.51,30.5,6.32a22.43,22.43,0,0,1,2,1.51h0c4-20.79,19.23-56.28,19.23-56.28,17.51,1.26,27.79-8.61,27.79-8.61s.13-1.44.23-3.87A4.91,4.91,0,0,1,1150.88,263.6Z"/><path class="cls-13" d="M1023.58,257.6s-17,43.94,0,53,34.61,7.86,59.81,7.77c0,0,2.27,4,4.53,2.54a3.93,3.93,0,0,0,4.39,1.44c3-.78,4.33-1.49,6,0s4.31-1,6.16-1.44,3.6,2.1,5.74-.94,5.56-7.22,4.74-10.95-3.7-10.16-5.47-11.54-3.73.18-4.61.12-1.44-1.32-3.38-.94-2.08,1.76-3.18,1.76-.78-2.2-3.6-1.57-1.76,1.94-4,2.07-4.45-.82-6.09,2.13c0,0-26.49,0-43.55-7.72,0,0-.56-11.51,6.78-26.93C1047.88,266.42,1034.67,265.53,1023.58,257.6Z"/><path class="cls-15" d="M1076.94,318.43l6.45,0c-3.65-7,1.26-17.32,1.26-17.32s-1.27,0-3.45-.08C1081.47,307.54,1073.48,306.62,1076.94,318.43Z"/><path class="cls-23" d="M1087.51,311.82c-.57-2.59-2.38-4.42-4.19-4.33h-2.52l.19,1.61a6.17,6.17,0,0,0-.47,4.24,6.85,6.85,0,0,0,1.3,2.8l.18,1.53h2.32a2.26,2.26,0,0,0,.52,0h0l.24,0C1087,317.19,1088.11,314.6,1087.51,311.82Z"/><ellipse class="cls-63" cx="1081.47" cy="312.58" rx="3.58" ry="5.16" transform="translate(-41.78 237.76) rotate(-12.31)"/><path class="cls-14" d="M1110.2,309.58c-.57-1.85-3.11-2-2.08,1.5s-4.61,10.23-4.61,10.23h0a6,6,0,0,1,1-.38,2.44,2.44,0,0,1,1.17,0C1108.34,317.55,1110.7,311.22,1110.2,309.58Z"/><path class="cls-14" d="M1097.37,321.73c2.9-3.13,5.69-10.38,5.15-12.15s-3.1-2-2.07,1.5-4.86,9.85-4.86,9.85-.12.29-.23.65A3.39,3.39,0,0,1,1097.37,321.73Z"/><path class="cls-14" d="M1094.85,309.58c-.56-1.85-3.1-2-2.07,1.5s-4.86,9.85-4.86,9.85a3.67,3.67,0,0,0,1.4,1.19C1092.35,319.26,1095.42,311.43,1094.85,309.58Z"/><rect class="cls-56" x="1093.6" y="311.98" width="21.84" height="5.09" rx="2.54" transform="translate(-21.41 88.32) rotate(-4.54)"/><rect class="cls-64" x="1094.84" y="311.88" width="21.84" height="5.09" rx="2.54" transform="matrix(1, -0.08, 0.08, 1, -21.4, 88.42)"/><path class="cls-13" d="M1150.17,267.56h0a38.82,38.82,0,0,1-23.9,7.57h0s-1.68,14.57,5,27.82c5.49-.84,11-2.55,13.89-5.93a30.29,30.29,0,0,1,8.56-6.55h0S1148.66,283.73,1150.17,267.56Z"/><ellipse class="cls-51" cx="1094.31" cy="248.34" rx="16.69" ry="16.74"/><ellipse class="cls-65" cx="1093.58" cy="247.6" rx="15.95" ry="16"/><ellipse class="cls-66" cx="1093.68" cy="248.34" rx="3.01" ry="4.24" transform="translate(82.14 732.69) rotate(-38.38)"/><path class="cls-67" d="M1119.8,303.68s-2.73-22.74-3.91-30.16c-1.72-10.72-13-20-18.52-24-1.85-1.32-2.83,1.37-1,2.58,5.42,3.66,16.46,12.19,17.68,21.57,1.11,8.47,4.39,30.39,4.39,30.39Z"/><path class="cls-15" d="M1088.54,200.54,1085.72,212s-1.83,10.55,8.59,12.24,16.26.38,18-4.52,2.73-9.22,2.73-9.22Z"/><path class="cls-13" d="M1141,173a3.79,3.79,0,0,0-2.32.2.49.49,0,0,0,0-.12c-.55-5.73-9.45-28-9.45-28H1083.1l-4.34,21.06a16.7,16.7,0,0,1,2.29,8.14c.08,4.75,0,7.5-2.25,12.18s-5.82,9.95-3.45,14.45c1.32,8.33,20.3,16.93,37.17,11.29,12.84-4.29,20-15.82,23.44-25.44a3.72,3.72,0,0,0,1.5.78c2.72.67,5.72-2.06,6.71-6.08S1143.74,173.65,1141,173Z"/><path class="cls-15" d="M1128.22,148.62c-13.94-3.34-25.67,5.07-34,4.77-7.81-.28-7.21,1-9.08,1.74-3.41,1.86-5,5.37-5.79,7.93l-.64,3.09s2.48-12.84,40.6-13.48c10.33,0,12,16.53,13.87,19.11C1133.45,164,1128.22,148.62,1128.22,148.62Z"/><path class="cls-15" d="M1133.23,171.78a.4.4,0,0,0,.18.13Z"/><circle class="cls-68" cx="1120.05" cy="183.61" r="8.96" transform="matrix(0.53, -0.85, 0.85, 0.53, 375.02, 1039.85)"/><circle class="cls-69" cx="1090.63" cy="183.18" r="8.01" transform="translate(661.77 1202.55) rotate(-76.72)"/><path class="cls-70" d="M1130.86,137.38h0c-7.54-9.71-17.66-15.35-41.88-1.06-1.17,0-15.35,6.14-10.22,29.83,0,0,.66-7.87,6.43-11,1.87-.75,1.27-2,9.08-1.74,8.28.3,20-8.11,34-4.77h0s5.23,15.33,5,23.16c3.38,2.44,5.43,1,5.43,1S1148.05,148.23,1130.86,137.38Z"/><path class="cls-71" d="M1091.33,192.63s7.22,3.52,21.19,0c0,0-2.22,11.61-13.07,10.93S1091.33,192.63,1091.33,192.63Z"/><path class="cls-11" d="M1093,192.93a29.85,29.85,0,0,0,16.24,0s.81,2.36-1.48,3a23.79,23.79,0,0,1-13.23-.37C1093,195.11,1092.9,193.1,1093,192.93Z"/><path class="cls-72" d="M1113.74,165.56l.69,3.71s6.83-2,11.71-.49l.49-2.05S1122,162.44,1113.74,165.56Z"/><path class="cls-72" d="M1097,163.49l-.68,4.84a14.49,14.49,0,0,0-9.93,1.43l-1.06-1.43S1087.82,162.22,1097,163.49Z"/><path class="cls-15" d="M1139,179.58c2.24,0,.3-3.83,2.25-3.05s2.26,1.73,2.26,1.73-.16-3.53-2.27-3.53C1138.1,174.73,1138.13,179.58,1139,179.58Z"/><path class="cls-15" d="M1137.46,187.55c2.72.67,5.72-2.06,6.71-6.08a11.63,11.63,0,0,0,.28-1.9c-3.66,8-7.61,4.74-7.61,4.74-.44,1.39-.85,2.4-.88,2.46A3.72,3.72,0,0,0,1137.46,187.55Z"/><path class="cls-70" d="M1138.19,170.45l-5,1.33c1.56,13.41-9.5,21.9-16.14,19.81-16.23-9.69-30.25-.71-33.37.07s-2.89-11.28-2.89-11.28h0a32.5,32.5,0,0,1-2,6.09c-2.21,4.68-5.82,9.95-3.45,14.45,1.32,8.33,20.3,16.93,37.17,11.29,12.84-4.29,20-15.82,23.44-25.44a43.37,43.37,0,0,0,2.7-14A22.69,22.69,0,0,0,1138.19,170.45Zm-37.08,34.87c-11.54,0-12.9-5.66-11.73-12.69,0,0,13,4,25.34,0C1114.72,192.63,1112.65,205.32,1101.11,205.32Z"/><path class="cls-72" d="M1100.1,209.81c-19.5,2.06-25.08-11.66-25.5-12.77a7,7,0,0,0,.75,3.88c1.32,8.33,20.3,16.93,37.17,11.29,12.84-4.29,20-15.82,23.44-25.44a43.37,43.37,0,0,0,2.7-14C1128.8,198.77,1120.41,207.66,1100.1,209.81Z"/><path class="cls-73" d="M1105.83,172.64s-1.82-.93-3,2.56-2,6.17-4.38,7.08-2.38,7,4.15,5.8,7.87-4.72,6.32-9.38S1107.48,173.64,1105.83,172.64Z"/><path class="cls-74" d="M1097.7,185.23c.29.43,1.11.39,1.82-.09s1.06-1.23.77-1.66-1.11-.39-1.82.09S1097.41,184.8,1097.7,185.23Z"/><path class="cls-72" d="M1130.86,137.38a8.26,8.26,0,0,0-2.64,11.24s5.23,15.33,5,23.16c3.38,2.44,5.43,1,5.43,1S1148.05,148.23,1130.86,137.38Z"/><path class="cls-75" d="M1129,151.05s5.86,2.06,10.57-1.65c.19.15-2.88,4.27-10,3.65C1129.59,153,1129,151.05,1129,151.05Z"/><path class="cls-72" d="M1088.12,136.76c-2.72,2-13.83,8.75-9.36,29.39,0,0,.66-7.87,6.43-11,1.87-.75,1.27-2,9.08-1.74-20.08-5.08-5.29-17.07-5.29-17.07Z"/><path class="cls-11" d="M1097,175.2c0,2.82-2.08,3.55-4.9,3.55s-5.3-.73-5.3-3.55a5.1,5.1,0,1,1,10.2,0Z"/><path class="cls-76" d="M1091.89,170.1a5.1,5.1,0,0,0-5.1,5.1c.54,0,1.51-3.5,5.1-3.65s4.32,3.59,5.1,3.65A5.1,5.1,0,0,0,1091.89,170.1Z"/><path class="cls-77" d="M1092.79,172c-1.31,0-2.39,1-2.61,2.74a1.34,1.34,0,0,1,.45-.09,1.16,1.16,0,0,1,0,2.31l-.23,0a2.41,2.41,0,0,0,2.39,1.6c1.46,0,2.64-1,2.64-3.14S1094.25,172,1092.79,172Z"/><path class="cls-78" d="M1126.83,133c-.68-.61-1.39-1.2-2.14-1.75-26.3,12.64-35,4.73-35.08,4.69h0C1098.79,151,1118.47,137.6,1126.83,133Z"/><path class="cls-79" d="M1092.79,172c-1.31,0-2.39,1-2.61,2.74a1.34,1.34,0,0,1,.45-.09,1.19,1.19,0,0,1,.53.14,3.26,3.26,0,0,1,1.63-.41,2.42,2.42,0,0,1,2.59,1.72,5.12,5.12,0,0,0,0-.7C1095.43,173.27,1094.25,172,1092.79,172Z"/><path class="cls-11" d="M1115.08,175.43c0,2.81,2.08,3.55,4.9,3.55s5.3-.74,5.3-3.55a5.1,5.1,0,1,0-10.2,0Z"/><path class="cls-76" d="M1120.18,170.33a5.1,5.1,0,0,1,5.1,5.1c-.53,0-1.51-3.5-5.1-3.65s-4.31,3.59-5.1,3.65A5.1,5.1,0,0,1,1120.18,170.33Z"/><path class="cls-77" d="M1120,172.27c-1.31,0-2.39,1-2.6,2.74a1,1,0,0,1,.44-.09,1.16,1.16,0,0,1,0,2.31l-.23,0a2.43,2.43,0,0,0,2.39,1.6c1.46,0,2.64-1,2.64-3.14S1121.49,172.27,1120,172.27Z"/><path class="cls-79" d="M1120,172.27c-1.31,0-2.39,1-2.6,2.74a1,1,0,0,1,.44-.09,1.08,1.08,0,0,1,.53.14,3.16,3.16,0,0,1,1.63-.41,2.4,2.4,0,0,1,2.59,1.72,5.12,5.12,0,0,0,.05-.7C1122.67,173.49,1121.49,172.27,1120,172.27Z"/><path class="cls-80" d="M1135.34,166.71s3.35.86,3.35,3.61v2.75l-4-1.39Z"/><path class="cls-81" d="M1109.43,166.71c-1.75.35-3.1.57-4.19.7-1.08-.13-2.43-.35-4.18-.7-9.16-1.83-25.91,0-25.91,0s.13,4.84.65,5,1.7.26,2.49,3.93c2,3.66,1.31,7.72,12,8.07s11.25-4.54,12.82-9.64a2.18,2.18,0,0,1,4.19,0c1.57,5.1,2.09,10,12.82,9.64s10.08-4.41,12-8.07c.79-3.67,2-3.8,2.49-3.93s.65-5,.65-5S1118.59,164.88,1109.43,166.71Zm-9.18,11.8c-2.35,4.71-9.55,3.66-14.78,3.14s-5.5-7.72-5.24-11.39,9.43-2.62,15.18-2.75,6.41,4.34,6.41,4.34S1102.61,173.8,1100.25,178.51Zm25.19,3.14c-5.24.52-12.43,1.57-14.79-3.14s-1.57-6.66-1.57-6.66.65-4.47,6.41-4.34,14.92-.91,15.18,2.75S1130.67,181.12,1125.44,181.65Z"/><path class="cls-46" d="M1091.39,167.5l-4.13,14.34-1.82-.19c-5.24-.52-5.5-7.72-5.24-11.38.15-2.12,3.26-2.66,7-2.77Zm1.47,0L1088.57,182l1.29.1,4.27-14.52Zm28.45-.05L1117,182l1.29.1,4.27-14.63Zm-5.88,0c-5.76-.13-6.42,4.33-6.42,4.33s-.78,1.95,1.58,6.66c1,2,2.9,3,5.15,3.37l4.06-14.39C1118.26,167.49,1116.75,167.53,1115.43,167.5Z"/><path class="cls-82" d="M1095.14,201.89a10.93,10.93,0,0,0,13.23-2.29S1097,197.5,1095.14,201.89Z"/><path class="cls-83" d="M1140.25,167.34s1,.85,1.74-1.81,7.63-38.16-23.25-43.95-37.7,20.59-37.7,20.59-13.65,11.1-10.06,19.08c2,4.4,7,3.12,7,3.12s8.41-19.66,28.72-9.48c0,0,6.67,9.83,10.14,11.22s16.83.17,19.14.17A6.62,6.62,0,0,1,1140.25,167.34Z"/><path class="cls-16" d="M1071,161.25c2,4.4,7,3.12,7,3.12s8.41-19.66,28.72-9.48c0,0,6.67,9.83,10.14,11.22s16.83.17,19.14.17a9,9,0,0,1,2.38.23h0c-24.5-39.39-57.37-24.34-57.37-24.34S1067.39,153.27,1071,161.25Z"/><path class="cls-40" d="M1071,161.25l1.43,2c2.31,2,5.62,1.16,5.62,1.16s8.41-19.66,28.72-9.48C1084.67,133.8,1071,161.25,1071,161.25Z"/><path class="cls-84" d="M926.51,426.88a4.45,4.45,0,0,0-4.33,3.41h-48.1V314.54L825.69,290,828,123.29a4.47,4.47,0,1,0-2.26,0L823.43,291.7l48.77,24.64V432.17h49.92a4.47,4.47,0,1,0,4.39-5.29Z"/><path class="cls-84" d="M820,106.71h0a10.53,10.53,0,1,0-19,0h0l9.48,18.35Zm-9.48-10.79a6.2,6.2,0,1,1-6.2,6.2A6.21,6.21,0,0,1,810.49,95.92Z"/></svg>